<mxfile host="65bd71144e">
    <diagram id="vN_9DDZ3UMOK5UVMuxBE" name="Page-1">
        <mxGraphModel dx="1081" dy="561" grid="1" gridSize="10" guides="1" tooltips="1" connect="1" arrows="1" fold="1" page="1" pageScale="1" pageWidth="827" pageHeight="1169" math="0" shadow="0">
            <root>
                <mxCell id="0"/>
                <mxCell id="1" parent="0"/>
                <mxCell id="32" value="" style="rounded=0;whiteSpace=wrap;html=1;" parent="1" vertex="1">
                    <mxGeometry x="200" y="170" width="540" height="510" as="geometry"/>
                </mxCell>
                <mxCell id="36" value="&lt;span style=&quot;color: rgba(0 , 0 , 0 , 0) ; font-family: monospace ; font-size: 0px&quot;&gt;%3CmxGraphModel%3E%3Croot%3E%3CmxCell%20id%3D%220%22%2F%3E%3CmxCell%20id%3D%221%22%20parent%3D%220%22%2F%3E%3CmxCell%20id%3D%222%22%20value%3D%22Lambda%40Edge%26lt%3Bbr%26gt%3BDefault%22%20style%3D%22sketch%3D0%3BoutlineConnect%3D0%3BfontColor%3D%23232F3E%3BgradientColor%3Dnone%3BstrokeColor%3D%23ffffff%3BfillColor%3D%23232F3E%3Bdashed%3D0%3BverticalLabelPosition%3Dmiddle%3BverticalAlign%3Dbottom%3Balign%3Dcenter%3Bhtml%3D1%3BwhiteSpace%3Dwrap%3BfontSize%3D10%3BfontStyle%3D1%3Bspacing%3D3%3Bshape%3Dmxgraph.aws4.productIcon%3BprIcon%3Dmxgraph.aws4.lambda%3B%22%20vertex%3D%221%22%20parent%3D%221%22%3E%3CmxGeometry%20x%3D%22352%22%20y%3D%22360%22%20width%3D%2286%22%20height%3D%22115%22%20as%3D%22geometry%22%2F%3E%3C%2FmxCell%3E%3C%2Froot%3E%3C%2FmxGraphModel%3E&lt;/span&gt;" style="rounded=0;whiteSpace=wrap;html=1;strokeColor=default;strokeWidth=2;" parent="1" vertex="1">
                    <mxGeometry x="220" y="190" width="300" height="450" as="geometry"/>
                </mxCell>
                <mxCell id="49" style="edgeStyle=none;html=1;startArrow=classic;startFill=1;" parent="1" source="2" target="38" edge="1">
                    <mxGeometry relative="1" as="geometry"/>
                </mxCell>
                <mxCell id="53" value="App" style="edgeLabel;html=1;align=center;verticalAlign=middle;resizable=0;points=[];" parent="49" vertex="1" connectable="0">
                    <mxGeometry x="-0.0937" relative="1" as="geometry">
                        <mxPoint as="offset"/>
                    </mxGeometry>
                </mxCell>
                <mxCell id="50" style="edgeStyle=none;html=1;startArrow=classic;startFill=1;" parent="1" source="2" target="42" edge="1">
                    <mxGeometry relative="1" as="geometry">
                        <Array as="points">
                            <mxPoint x="280" y="558"/>
                        </Array>
                    </mxGeometry>
                </mxCell>
                <mxCell id="54" value="Image" style="edgeLabel;html=1;align=center;verticalAlign=middle;resizable=0;points=[];" parent="50" vertex="1" connectable="0">
                    <mxGeometry x="-0.2561" y="4" relative="1" as="geometry">
                        <mxPoint x="-1" as="offset"/>
                    </mxGeometry>
                </mxCell>
                <mxCell id="51" style="edgeStyle=none;html=1;startArrow=classic;startFill=1;" parent="1" source="2" target="43" edge="1">
                    <mxGeometry relative="1" as="geometry">
                        <Array as="points">
                            <mxPoint x="280" y="265"/>
                        </Array>
                    </mxGeometry>
                </mxCell>
                <mxCell id="52" value="API Route" style="edgeLabel;html=1;align=center;verticalAlign=middle;resizable=0;points=[];" parent="51" vertex="1" connectable="0">
                    <mxGeometry x="-0.1003" y="1" relative="1" as="geometry">
                        <mxPoint as="offset"/>
                    </mxGeometry>
                </mxCell>
                <mxCell id="71" style="edgeStyle=none;html=1;" edge="1" parent="1" source="2" target="68">
                    <mxGeometry relative="1" as="geometry">
                        <mxPoint x="120" y="260" as="targetPoint"/>
                        <Array as="points">
                            <mxPoint x="170" y="350"/>
                            <mxPoint x="120" y="310"/>
                        </Array>
                    </mxGeometry>
                </mxCell>
                <mxCell id="72" value="Call API" style="edgeLabel;html=1;align=center;verticalAlign=middle;resizable=0;points=[];" vertex="1" connectable="0" parent="71">
                    <mxGeometry x="0.1592" y="1" relative="1" as="geometry">
                        <mxPoint as="offset"/>
                    </mxGeometry>
                </mxCell>
                <mxCell id="74" style="edgeStyle=none;html=1;" edge="1" parent="1" source="2" target="73">
                    <mxGeometry relative="1" as="geometry">
                        <Array as="points">
                            <mxPoint x="130" y="460"/>
                        </Array>
                    </mxGeometry>
                </mxCell>
                <mxCell id="75" value="Notify" style="edgeLabel;html=1;align=center;verticalAlign=middle;resizable=0;points=[];" vertex="1" connectable="0" parent="74">
                    <mxGeometry x="-0.0282" y="3" relative="1" as="geometry">
                        <mxPoint as="offset"/>
                    </mxGeometry>
                </mxCell>
                <mxCell id="2" value="Amazon Cloudfront" style="sketch=0;outlineConnect=0;fontColor=#232F3E;gradientColor=none;strokeColor=#ffffff;fillColor=#232F3E;dashed=0;verticalLabelPosition=middle;verticalAlign=bottom;align=center;html=1;whiteSpace=wrap;fontSize=10;fontStyle=1;spacing=3;shape=mxgraph.aws4.productIcon;prIcon=mxgraph.aws4.cloudfront;" parent="1" vertex="1">
                    <mxGeometry x="240" y="360" width="80" height="110" as="geometry"/>
                </mxCell>
                <mxCell id="3" value="Amazon S3" style="sketch=0;outlineConnect=0;fontColor=#232F3E;gradientColor=none;strokeColor=#ffffff;fillColor=#232F3E;dashed=0;verticalLabelPosition=middle;verticalAlign=bottom;align=center;html=1;whiteSpace=wrap;fontSize=10;fontStyle=1;spacing=3;shape=mxgraph.aws4.productIcon;prIcon=mxgraph.aws4.s3;" parent="1" vertex="1">
                    <mxGeometry x="640" y="357.5" width="80" height="110" as="geometry"/>
                </mxCell>
                <mxCell id="9" style="edgeStyle=none;html=1;startArrow=classic;startFill=1;" parent="1" source="6" target="2" edge="1">
                    <mxGeometry relative="1" as="geometry"/>
                </mxCell>
                <mxCell id="6" value="Client" style="sketch=0;outlineConnect=0;fontColor=#232F3E;gradientColor=none;strokeColor=#232F3E;fillColor=#ffffff;dashed=0;verticalLabelPosition=bottom;verticalAlign=top;align=center;html=1;fontSize=12;fontStyle=0;aspect=fixed;shape=mxgraph.aws4.resourceIcon;resIcon=mxgraph.aws4.client;" parent="1" vertex="1">
                    <mxGeometry x="30" y="382.5" width="60" height="60" as="geometry"/>
                </mxCell>
                <mxCell id="37" value="&lt;br&gt;Serverless Next Components" style="text;html=1;strokeColor=none;fillColor=none;align=center;verticalAlign=middle;whiteSpace=wrap;rounded=0;" parent="1" vertex="1">
                    <mxGeometry x="265" y="600" width="210" height="40" as="geometry"/>
                </mxCell>
                <mxCell id="48" style="edgeStyle=none;html=1;startArrow=classic;startFill=1;endArrow=none;endFill=0;" parent="1" source="38" target="3" edge="1">
                    <mxGeometry relative="1" as="geometry"/>
                </mxCell>
                <mxCell id="64" value="Get Resources" style="edgeLabel;html=1;align=center;verticalAlign=middle;resizable=0;points=[];" parent="48" vertex="1" connectable="0">
                    <mxGeometry x="0.3396" y="2" relative="1" as="geometry">
                        <mxPoint x="-24" y="1" as="offset"/>
                    </mxGeometry>
                </mxCell>
                <mxCell id="38" value="Lambda@Edge&lt;br&gt;Default" style="sketch=0;outlineConnect=0;fontColor=#232F3E;gradientColor=none;strokeColor=#ffffff;fillColor=#232F3E;dashed=0;verticalLabelPosition=middle;verticalAlign=bottom;align=center;html=1;whiteSpace=wrap;fontSize=10;fontStyle=1;spacing=3;shape=mxgraph.aws4.productIcon;prIcon=mxgraph.aws4.lambda;" parent="1" vertex="1">
                    <mxGeometry x="413.5" y="357.5" width="86" height="115" as="geometry"/>
                </mxCell>
                <mxCell id="55" style="edgeStyle=none;html=1;startArrow=classic;startFill=1;endArrow=none;endFill=0;" parent="1" source="42" target="3" edge="1">
                    <mxGeometry relative="1" as="geometry">
                        <Array as="points">
                            <mxPoint x="680" y="558"/>
                        </Array>
                    </mxGeometry>
                </mxCell>
                <mxCell id="67" value="Get assets" style="edgeLabel;html=1;align=center;verticalAlign=middle;resizable=0;points=[];" parent="55" vertex="1" connectable="0">
                    <mxGeometry x="-0.3431" y="5" relative="1" as="geometry">
                        <mxPoint y="5" as="offset"/>
                    </mxGeometry>
                </mxCell>
                <mxCell id="42" value="Lambda@Edge&lt;br&gt;Image" style="sketch=0;outlineConnect=0;fontColor=#232F3E;gradientColor=none;strokeColor=#ffffff;fillColor=#232F3E;dashed=0;verticalLabelPosition=middle;verticalAlign=bottom;align=center;html=1;whiteSpace=wrap;fontSize=10;fontStyle=1;spacing=3;shape=mxgraph.aws4.productIcon;prIcon=mxgraph.aws4.lambda;" parent="1" vertex="1">
                    <mxGeometry x="414" y="500" width="86" height="115" as="geometry"/>
                </mxCell>
                <mxCell id="56" style="edgeStyle=none;html=1;startArrow=classic;startFill=1;" parent="1" source="43" target="45" edge="1">
                    <mxGeometry relative="1" as="geometry"/>
                </mxCell>
                <mxCell id="59" value="CRUD" style="edgeLabel;html=1;align=center;verticalAlign=middle;resizable=0;points=[];" parent="56" vertex="1" connectable="0">
                    <mxGeometry x="0.139" relative="1" as="geometry">
                        <mxPoint as="offset"/>
                    </mxGeometry>
                </mxCell>
                <mxCell id="43" value="Lambda@Edge&lt;br&gt;API" style="sketch=0;outlineConnect=0;fontColor=#232F3E;gradientColor=none;strokeColor=#ffffff;fillColor=#232F3E;dashed=0;verticalLabelPosition=middle;verticalAlign=bottom;align=center;html=1;whiteSpace=wrap;fontSize=10;fontStyle=1;spacing=3;shape=mxgraph.aws4.productIcon;prIcon=mxgraph.aws4.lambda;" parent="1" vertex="1">
                    <mxGeometry x="414" y="207.5" width="86" height="115" as="geometry"/>
                </mxCell>
                <mxCell id="45" value="Amazon DynamoDB" style="sketch=0;outlineConnect=0;fontColor=#232F3E;gradientColor=none;strokeColor=#ffffff;fillColor=#232F3E;dashed=0;verticalLabelPosition=middle;verticalAlign=bottom;align=center;html=1;whiteSpace=wrap;fontSize=10;fontStyle=1;spacing=3;shape=mxgraph.aws4.productIcon;prIcon=mxgraph.aws4.dynamodb;" parent="1" vertex="1">
                    <mxGeometry x="640" y="212.5" width="80" height="110" as="geometry"/>
                </mxCell>
                <mxCell id="66" value="Managed by this repository" style="text;html=1;strokeColor=none;fillColor=none;align=center;verticalAlign=middle;whiteSpace=wrap;rounded=0;" parent="1" vertex="1">
                    <mxGeometry x="310" y="650" width="365" height="30" as="geometry"/>
                </mxCell>
                <mxCell id="69" style="edgeStyle=none;html=1;" edge="1" parent="1" source="68" target="2">
                    <mxGeometry relative="1" as="geometry">
                        <Array as="points">
                            <mxPoint x="79" y="320"/>
                            <mxPoint x="160" y="380"/>
                        </Array>
                    </mxGeometry>
                </mxCell>
                <mxCell id="70" value="Webhook" style="edgeLabel;html=1;align=center;verticalAlign=middle;resizable=0;points=[];" vertex="1" connectable="0" parent="69">
                    <mxGeometry x="-0.1457" relative="1" as="geometry">
                        <mxPoint as="offset"/>
                    </mxGeometry>
                </mxCell>
                <mxCell id="68" value="" style="shape=image;verticalLabelPosition=bottom;labelBackgroundColor=#ffffff;verticalAlign=top;aspect=fixed;imageAspect=0;image=data:image/png,iVBORw0KGgoAAAANSUhEUgAABsIAAAYgCAMAAAD81qjzAAABC1BMVEUAAADwWSf3bibvWCfsUijnSyjlRiniQynrUCjvVyjpTSjvVyfsUijqUCjqTyjvViftUyjmSCnxWSfsUyjrUSjqTijwWCfuVijuVCj0cyfwWCjyXCf8iSb8oyb8kCb8bSbnSyj8jib8gCb0Xyf8jib8lib8dib6aib8nSb8cCb8oCb8jSb8lib8lCb8hib5aSb8iyb8mSb8lCb8jSb8jCb4ZSf8iybuVSj8hyb8kib8eyb8nCb8iyb8kSb8kybrUSj8kCb2Yif8myb8iib8iCb8jyb8mCb8kCb8jiaMkp2Mkp2Mkp2Mkp2Mkp2Mkp2Mkp2Mkp2Mkp2Mkp2Mkp2Mkp2Mkp2Mkp2Mkp2Mkp1vHdrnAAAAWXRSTlMAPBBKwvP//89X6GSw1txynPsfppLiLpKH8f//H/////+S//+c5v///f//h//e/////9ZwfP9X/2TP//lKwMj/sv/2PC6m7mTQEEBggHAgMLDA4P/QUKDwkJ+LUN0AAD81SURBVHgB7N0HYhpJE8fRIhYgklByuP85v7i9YSQcZIO6hveOsMHhp+n6BwAAAAAAAAAAAAAAAAAAAAAAAAAAAAAAAAAAAAAAAAAAAAAAAAAAAAAAAAAAAAAAAAAAAAAAAAAAAAAAAAAAAAAAAAAAAAAAAAAAAAAAAAAAAAAAAAAAAAAAAAAAAAAAAAAAAAAAAAAAAAAAAAAAAAAAAAAAAAAAAAAAAAAAAAAAAAAAAAAAAAAAAAAAAAAAAAAAAAAAAAAAAAAAAAAAAAAAAAAAAAAAAAAAAAAAAAAAAAAAAAAAAAAAAAAAAAAAAAAAAAAAAAAAAAAAAAAAAAAAAAAAAAAAAAAAAAAAAAAAAAAAAAAAAAAAAAAAAAAAAAAAAAAAAAAAAAAAAAAAAAAAAAAAAAAAAAAAAAAAAAAAAAAAAAAAAAAAAAAAAAAAAAAAAAAAAAAAAAAAAAAAAAAAAAAAAAAAAAAAAAAAAAAAAAAAAAAAAAAAAAAAAAAAAAAAAAAAAAAAAAAAAAAAAAAAAAAAAAAAAAAAAAAAAAAAAAAAAAAAAAAAAAAAAAAAAAAAAABQGQAAAAAAAAAAAAAAAAAAAAAAAAAAAAAAAADAZBrdY+pfE8A/zOaLZWYuF6t1dIt1+9c0n8R/ATDb5F8W6+gSd4v8y2YWAMR2mf8wjw4xz39YbuPmAexyaDONzjDd5NAuAPzh3i+O/dvngL8uAxzyLcfoCsd8yyFuGcB9vuV+Gh3hdOZfUwD40/0r26Aj2xzyt2WARWb/f77nPt+2CYCbNclzZkE31nnOKQBu1UOeMw+6Mc9zjgGgIyqJlTqikghwyuy/JDLLISUR4JjnbYNuO6KSCLDJ8xZBzx1RSQR0xPMmQccdsZkGgI6oJJbqiM1jAOiISmKpz0abpwDQEV95Djp+ft4EwA16yW97CDp+ft58CoDb85SpJNbtiM0+AG7PMvsviTznkJII8Ckbz2YLd0QlETBl79lsmY6oJAJk4wBf0Y7YBICOqCTW6ojNIQB0RCWxVEdsdgGgI/Z/gM/zcyUR4JA/4iXo+IxlcxcAt2SXjQN8ZZ+fN6sAsEE1tJwGH2i6zB9xHzcEYJ1ZvyQ6Y9ms43YArLLxbLZ4R1QSAR3xjOiSjqgkAjqiA3wFO6KSCOiI9UuijtjMA0BHLFASdUQlEdAR65dEZyybWdwGgHk2DvAVP2PZbANARyyZqPxrWsRNAJjkQN0pD2csm0ncAoBtZsWS6IylkgiwyKxbEnVEJRHQET2bLdsRlURAR3SAr1xHVBIBHbF6SdQRlURAR6xfEnXE5jnGDuAhc0wl0RnL5iEAdMRSJVFHbDYxcgCnbBzg69gsf94pxg3gmAPVpzycsWyOMW4Am2wKfuymIyqJgI7o2WzRjqgkAjqiZ7PlO6KSCOiI9Uuijtg8xYgBTDPHVxJ1xGYa4wXwkjm+kqgjNo8xXgBPmRVLoufnSiLAMvsviTzne8VoAXzKxgG+jj3ke32KsQLYZ46xJOqIzT7GCiDf7xQd0xGbANARPZvtsiMqiYCO6ABfrY6oJAJkjrUk6ohNANiyr1USdcTmEGMEsMsca0nUEZtdALgd+zElkdMyf8V9jBDAOnO8JdEZy2Yd4wOwysYBvhGesWxWAaAjDi2ncXFMl/l9SiKgI3o2W78jKomAjujZbP2OqCQCOuJ50R0dUUkEbNnXL4k6YjMLAFv2pUqijtjMA8DNh48viTqikggwyRx7SXTGspnEmABsM5XEsZ+xbLYBoCOWKok+G20WAaAjvnIXfdIRlURAR6z/bFZHVBIBHdHHbkU6opII2LKvf4BPR2yeA8CWvZJYqiM2DwEwFptMJbFgR1QSAU6ZSmL/7nJISQQ4ZiqJt3HGsjkGgI6oJJbqiM0mAHREJbHGHM7QKQB0RFMelTqikgjoiD5266AjKokA02xu4ACfjthMA8CWfakDfDpi8xgAtuyVxFIdsXmK+gAylcSKHVFJBPiUqSRW7IhKIsA+U0m8hTmcoX0A6IhKYo05nKEA0BGVxBpzOEOfAkBHVBILdEQlEdAR6x/g0xGbALBlX+sAn47YHALAln2pA3w6YrMLADcflMRrd0QlEWCdqSRW7IhKIsAqU0ns3yYvYxUAOuIlSyLTZV7GfQDoiEpijTmcoXUA6IhKYqE5HCUR0BFNeVToiEoiYIOq/gE+HVFJBGxQ1T/ApyM28wBw8+GVuBQdUUkEmGQqibfaEZtZVASwzVQSi3ZEJRHQEZXE/i3zkhYBoCMqiTXmcIYmAaAjKokl5nCGtgGgIyqJ1Z6fK4mADSpTHoU7opII2KAyClyuIzYPAWCD6hrPZnVEJRHglJe3jo7piM1z1AJwzCFTHnU6opII6IhKoo6oJAI6opJYZ1Z76BQAOqKSWGIOZ+gYADqikliqIzabALBBpSTWmdVWEgEbVKY8CnfE5jHqANhnKok6YvMUdQBk4wCfjvgf06gC4FNmY8pDR1QSAR3x4s9mdUQlESBTSTSrbdsN0BGVxIKz2kOfAkBHVBJLzGoP7aMGgPtUEs1qK4mADSpTHleb1VYSAVaZSqKO+E+7ANARjQJfoSMqiYANKiVRR2wOAaAjmvK4QkdUEgEd0ZSHjtgEgI5oFLjGrPbQXQDoiL+hJPKU17YKAB3xgiXRrLZtN8AGlZJoVntoHaUAbsea8tARm3kA+FbbKPAVOqKSCNigMgqsIzazANARlcTrdEQlEdARPZvVEZVEQEc05XGFWW0lEdARjQKb1f6nbQDoiBcsiZ6f23YD3I5VEs1qD00CwAbVL5REdjmkJAJsMpVEHVFJLAg45ZuMAuuIzXOUAtigMgqsIzYPAaAjKolX64hKIqAjGgXWEZVEQEc0CnydWW0lEXA71gE+HbHZRA2A27FGgc1qD50CwAaVkvgu8/xYxwBwO/Y3lUQdUUkEyAFTHjriW6ZRCmCDyiiwjtg8RimAjqgk6ojNUwDoiEriFTqikgjoiEqijqgkAm7HXuUAn1ltJRHwMxajwGa1h6IGwO1Yo8BmtYc+RSmA27FKoo7Y7ANAR/zVKQ8dUUkEWOd3mfLQEZtDlALoiEqijtjsohZAR1QSdcQmAHREJfEKHVFJBNx8UBJ1RCUR0BHfUxI5LbMbAeB2rFHgGrPaQ+sA6MM2+7EJznjKfqwCwM9YXjkFb5ouc8C2G8Akh0x56Ii23QAd0ZRHNx3RthugIxoF1hGVREBHVBI764hKIqAjKokddEQlEdARlUQdUUkE3I59f0nkUw4piQDH7M0+eGWXvdkGwEfbZHeC75+xdJEZ4JT9+RQDHLI/zwGgI5ryeH9HtO0G6IhKoo6oJAI6olHgLjqikgjoiEqijqgkAm4+KIkddEQlEXDzQUnUEZVEwM2H75ZE5tmnYwB8nH2mkqgjvtcmAD5O9modQTPLXp0CQEc05fH+jugiM6AjmvLQEW27ATqiKY/eOqJtN0BHVBJ1RCURcPPh/SVRR1QSAe5TSdQRK5ZEgLtMJVFHrFgSAVaZ/ZdEFtmzfQDoiG+XRJ5zyB0VgHX2bRv/wUN+h4vMgI5oykNHdJEZ0BFNeXTQEZVEQEc0CqwjKomAb7WVxA46opII6IhKoo7YBICbD0rij3REJRFgm6kk9m+TQ0oiwCL7pyROlzngjgrAJAtQEl+ygnUA6IhDm7hxT1nBPAB0xFemOqKSCHC+I5ry0BFdZAZ8q20UuExHVBIBHVFJ1BGVRMDNByXx+x1RSQQ4ZiqJOqKSCLj5oCReyDIHlESAUxagJB6yjkkA6IipJDa7rGMbADri+ZJoDsdFZoBTVnLQEV1kBmhespKdjugiM0Dz+UspeaO+fqnkc9w8+Df7doHnOBKDUVy/gcwZBmR3B9yxG0LNzPe/0cKQljdxqioq5/2P8aQPKXzRoszJzoettFPmpNAvEh8A7Kr2y4wMPmylQZmRvupQACC+kapWZT72PmylvTIflaqOBACie6O/GdeUxFDoiHWjqs0bAYDY9vV3B5RE3z6V+TjQ3+0KAMR2qF8dURJdm5TZmOpXhwIAsTX6TZ+S6Fgvq1eOrxoBgAQd8aumoiSuj45YNfrdviQAgI741aymJK6LjljPVJWSmBJAR/yqKHPRoyN6VagqJTExgI6Y1UvHJzqiU0dqKImRAZjrH1WUxHXQESs1lMQUADqiaWpKIh1xzU0zJTERAAv9swNKYnt0xJn+2bFEB4COaKaURIdOsto0m7nEAwBj/as+JZGOuN6m2YwlGgA4VeN24UxJPMts02zOBQBiuVCT18J5Qkf0u2k2FwIACTqiKSiJdMT2m2ZKIoD0HTG3hfMZHdHvptmcCgCk6IjmsvTvhI7oyaWaFCURAK7UeF04UxJ7+W2aKYkAorvWfzOjJNIR22+aKYkA4rvRfzWlJNIR13jlMLcCAGk6oulTEr3IcdNsrgQA4nZEvwtnSuJdlptmcy0AEN69GrcLZ0riQ+lcPdb/ciMAEN6jmiwXznREv4cw8ygAENyT/o8jSiIdsfWm2TwJAMTviLktnB/oiH43zeZeACBiR/S7cKYkZv3KQUkEEMezmlwXznd0RL+bZkoigHhedAkFJZGO2P6Vg5IIIJJXNdkunOmIDjbNlER/ADqig4UzJXEn40OYeZZ0ANARzbimJG7QIONNs3mRkABgpEsqKIkbtFc6dqBLepWAAOCLLu2IkkhHbLVppiQCiGOoy7ukJNIR27xymKGkBoCO6P+lY4+O6PeVw4wkPQB0RPcL5x064kbUM13FFwkFAHbV5P3SMaAjOtg0UxLdAeiIpk9JpCMaO4QlL4kA8EZX1FSURDqiqdRQEr0B6IgOFs6UxE+uN82UROcAOqI5oCQmN8l+02wOJQwA0BaOKImJ9Uqnprq65o2EAAD72kafkvg7OmJf29iVEADgUNtoKkoiHdE2zZREABvRaCuzunSpR0d0u2k2jaQHgI7ofuH8iY7od9Ns9iU9AHRE06ckbntHPFJDScwAQEc0FSVxuztipSZ9SQSAhbY3rimJ29wR60ZN+pIIAHNdwwElMZET/5tmSqJ/AB3R/8K5R0d0sGmmJDoF0BFNn5KYwllnNs1mIesBgAs1XVk4T+iIfjfNZi7rAYCxms4snHt0RLebZjOWtQDAqZruLJzP6Ih+N83mVFIDQEf0/9JxQkf0u2k2FwJgQ+iIpqIkbltHvFRDSQSwGdcaQlNTEqM6c79pTl8SAeBGgzigJG5XR5ypoSQC2JArDWNKSYwpu00zJdE/gI5o+pTEeO48bpopie4BdEQHC2dK4kPHNs3mVpIDQEf0v3CmI/rdNJsraQkAnjSggpK4HR2x0ICupR0AuFfTtYXzAx3R76bZ3Es7APCoQV1SEqPo3qbZPAoAJO+I/hfOd3REv68c5knaAIAXDWxGSYzgwdum2UFJBIBXDW1KSQzP2yuHg5IIAM8aXp+SGNqOt02zr5IIgI7od+FMSRw4O4Q5K4kA6Ih+F86UxL3Si3qshpIIoDMd0RSUxK52xEKjeBYAcNARnS2cH+iIfjfN5kVWBQAjNd1cOO/REf2+cphXWREAfFHT1YXzDh3R7yuH+SKrAYChmq4unAd0xFDqmUYzlE0DQEc0BSWxax2x0HhGshIAeKMx9SmJ3eqIfTWbLokAsKvG7cKZkvipdKFSQ0kE0M2OaMY1JTGESUc2zf5LIgA6oikoiQH0ShcO1FASAXS2I5ojSmJXOuKRxrYrAOCgI5pLSmI3OmJfozuU5QFAo6bTLx09OqLbTbNp3sjf/MreHW8nre17HF3DP9jvUBvoThVIRApWymm1llat9/2f6J7tPeeiWoQGyFpJ5nwJxviu3ycAbPAmW2t34XxiR0yxaa6+JAK8zerQtyTu5yK5ptmSCMRXZrXIm74k2hGnWS3KsCOAy6we5bDZS6IdcZjV5E0A2M27bC3ZwtmSuBjEVpTZmiUxCUCZ1WViSaysl2LTbElMH9gR4xfOlsTlILZZtmZJTA/YEdt/0nFhR4zfNFsS0wd2xCRPOnp2xGSb5rVxANjBt6xW82IQ19KOmG7TvHYZALa7zta6UDgv7IjpNs1r7wLAduOsZrkl8fl6qTfNlkQggo9Z7YaWxKbtiDdZ7a4CwDa32VqyhbMlcdGRpnntOgBs8yGr38SS+FyDqObZPyyJgB3x+YWzJfEuetNsSQTsiJVOOiyJ99GbZksiYEdMonC2I1Zqmi2JgB0xfuF8Z0es0jRbEgE7YvzC+d6OmG7TvHYbAP7kIYtmakncWfymOYYPAeAPPmcRDdNfEu2IN1lEH8NmAF+ziMoi9SXRjjgss4hWYTOAxyymiSVxN/Gb5jgewkYAX7K4ZpbEXZzFP+WI5HMA9mBHjF84WxLPozbNlkTAjli5cLYkjuI/hEXyGDYByKKbF6kuiXbEYpxFFzYA+JbFEr9wPrcjbtPP4rsMTwN4lcUSv3Ae2RHTbZrXvoanAdxmKbgZRHFmR4zfNPvGFFDZu2wt1cLZknge/5QjnrcBSJCDxLW5JfFPRsk2zU4SAT9h2cySmNqO2M/8hAF+wvYsnC2JJzGbZj9hgLew6oWzJfFiUL9htuYtDHCRWK1wtiT2kmyaXSQCPpG41rckprMjTrJkrMLTAC6zdEwtiU+6iN80+zoHkKIXWUzxC+eeHfEJeZaQALDJQxZR/ML5xI6YZNO89hAANlllCZlbEhPYEYt5lpBVANjkc5aSviXxV73YTbN/bQbEzdUKZ0viSaoPYfHDZoA32Vp6hbMlcRGzaY7vTfgDgA9ZSsZFzCXRjliUWUo+BIDk07C1viXxR8v4TbMoDEjY6yye+IXzhR3xB7MsKa/DnwGclllSbmItiXbEPEtKeRq2AHifdfmkY2lHrNI0mxEBH/uNXzgv7IjrpjkpX8MOAN4medJhSex1uGnOPoWdALzLkpJbEuvfEacN/QUDeJXgc5glcdHdpvlV2BnAt3FyhbMlsbNN8/gqADzDaVJ92GQwsCTeDeozT6oHOw0Az/O1TKpwtiTed7NpLr8GgGe7eujmSYcdMc/S8fAxVADw4rqTJx13Xd8RU2qaP70I1QC8KbNUzItBTe47viMm1DSX70NlAF8eO1g4/5WkDjbNj6dhHwC3WSryTi+Jd91rmlcBoDWJ2DD+ktj+HfEmS8SHNsVggERsXHR4SWx00ywGAyRik+4uiWfdaprLvwNAyxKxaWeXxPOGN81iMEAilnd1SRw1vGn2WXpAIlYOu7kknqXfNIvBAIlYEoXzeSd3xGIsBgMkYo0vnEed3BH7YjBAItaCk46zDu6IUzEYIBFrQ+F83r0d8UYM1nbAqzKLrSw6tySO0j/lEIMBErFUCuezru2IczEY0AXxE7FZx5bEk9accojBAIlY3q0l8aL9TXN5GWoBcPoYvXDu0pLYS/8hTAwGSMQSKpxfdmhHLMZiMKBLrsYtL5xHHdoRJ2IwQCLWqsK515kdMXLT/NaI2DkgEbsZHNdJV3bEXAwGdNDHhzYXzqMO7IjxTzkePgeggyRi8/YtiRF2xGIuBgM66n3Z3sL5pBM7Yl8MFgMgEcu7sCQuBseUi8GALlu1tnDutX9HHIrBIgEkYvOi9UviMv2mWQwGSMSSK5wvWr8jTrJY3hkRAYnYNP0lMd0dcSYGWwMkYu0qnJft3hFzMdh3ANctLJwXrd4RozXNtwFAInb0wrnX4h2xmIvBYgMkYv0WL4nL1jXNr08DgESshsJ50d4dcSoGSwAgESuHrV0SW9Y0P4jBfgFIxMZFS5fEu8GRFKUYLA2ARKzf0iXxvk1Nc/kmJA7g80ObCue/oqq5aRaDAVy3qHC+a+OOmIvBNgG4LFtz0nHfwh1xWIrBUgJIxOYtXBJjNM1iMIBVW0467lq3I/bFYKkBJGJ525bE+zhNsxgM4PRtO57D/opmNDiCGzHYDgD+LtMvnBNeEs8iNM1isEgAidikVUvi+eAI5lmtHsVgQHN9akHh3KYdcSYGiwCQiEU76ThLf0dMs2kei8EAiVjkk47z1uyIw1IMli5AIjYvBoc2Sn9HTLBpLr+GFgC4+tDswvmsJTtiXwyWNkAilrdjSTxvdNN8/SI8H4BEbNiKJXGUftMsBgMkYukXzhGWxF6DTzkevwQAiVg1kxYsiScRmmYxWHyARGza/CXxoqmnHONvYQ8AErG86UtiL7GmWQwGsGpo4fyy4TvisBSDxQdIxKIUzqNm74jFWAwWHyARi1Q49xq9I/bFYLEAErH4Jx0nTd4Rp2IwoFkkYsMGL4kXzTvleDwNAF1wm9WgLBq7JPZinnKIweIDJGKTxi6Jy6Z9nn58FQA64/R1dnyzpi6Ji5RPOcRgAKuGFc69Zu6IeXZ05asA0DFXD40qnE8auSMOxWDxARKx2IXzRfo7YpSm+ToAdNKbskGFc6+BO+JEDBYfIBGLXzgvm7cjTsVgQJNJxG4GB7Jo3I6Yi8GARpOIlUXDlsRehKZZDJYkQCI2b9iSuIzQNIvB0gRIxGbNWhLvIzTNYrBEARKxvFFLYiNOOR4+hu8AOH2XZuEcYUm8S79pFoNVB0jEIhXOi+bsiEWZHU95GSoAkIjFLJybsyNOxGAAdbpNvnC+a8qOOMuOZxUqAJCIRS6c7xuyI+ZiMIAWJWJl0YwlMfGm+a0REaD+RGzeiCXxLkLTnHoMBiAR6zdhSbxPuWl++ByiAJCI5Q1YEkcRmubkYzAAiVg5TH5JPBvs7UYMBtDCRGxcpL4knsdtmvePwQC4TfY5LPUdcR49BgOQiCVaOJ+lvSPOEo3BACRi8Qvn86R3xDyFGAyAVZniScco5R1xWIrBANqbiM0TXhLP0mqaxWDVAZxeZ4fXT3dJPE+waf4UkgEgEcuTXRJHyTXNYrDqAD4/RngOi7Qk9uI2zenHYAASsXGR5pJ4ktopxyrsBYBv4+zAJmkuiRdpNc0fEozBACRi0/2WxBR3xH6SMRgAX8uUTjpext4Ra2iay79DkgAkYnuddIzS2xGHZaoxGAAvDpyIzYtBdb3UdsRinB3UbYgAQCJWQ+F8ktqO2E86BgPgy2ETsTyxJfEilab59WlIG4BEbJjUkthLpWlehdQBSMTGRUpL4jKNU46Hq5A+AInYJKUlcRGhaRaDNRYgEZumsyT2UjjlKN+EhgCQiOXJLInLCE1zhBgMQCIWvXC+SGVHHIrBOgqQiM2LNJbEXvSmeRwhBgOQiMUonJdp7IgTMVjjANxGPulYxN8RD9g0l6sQAYBELE7h3EtgR8zFYJ0GSMTKIv6SuIzaNL8zIjYUIBGbxF8S7wcVFHMxWNcBErFZ9CUxQtMcOQYD4DCJWB55SbwbVJCLwQAkYtUK50XcHXEoBms6gNPHWIVz1B2xKMVgABKxqoXzXcwdcSIGA2iDq3GUwvk+4o44E4P9F4BE7CbekhjhlCOZGAyAV2WEwvku1o44LMVgAO3xce9EbB5rSbyvv2l++BIAaFEiNou0JI5qaJqTjsEAeF9m+8mjLIlndX+efvyvAEDLErFyGGNJPK+haU4+BgNgVXPhHGFH3LNpLr+G5AFIxGoonM/q3xEnYjAAidgBCufz2nfEWbaP6xchfQASsToK51HdO2IuBtsAQCJWFvUuiWf1Nc2PYjCAdidi83qXxPNDNc1iMACJWL/WJXF0sKZZDAYgEctrXBJ7h2uaxWAAErFyWN+SeDLY3Y0YbAsAidi4qG1JvDhk0ywGA5CI9Y++JFbYEediMACJ2EEL55c17YizrJryfQCg/YlYlcJ5VM+OmIvBACRihz7p6NWxI1ZtmlehsQC4LI9cOJ/UsCMWYzEYgERsV/0alsSL4zbNb8Vg3QRIxPKjL4m9YzTNYjAAiVg5PPaSuDxm0/zwMQDQAqdvj1g4V14SF8c55RCDAUjEJodfEqvsiHMxWLcBfH44WuF8ctQdsS8G6zyAT8c66Vgcc0fMxWAAhMvySCcdvePtiMNSDFYFgERsXgx2sDzOjrhumsVgAKyOUjgvjrYjTsRgAPzH1YdjPIf1jrQjTsVg1QFIxIbHWRKXRzjl+BQAaLW/y/0L5/2XxPv9Tjm2x2AASMQmR1kSB1sV8+fFYKcBAInYz6ZHWBLv9m6at8dgAEjE8sMvifeHfQj7cBUAkIhVKpwPviMOxWAbALA6aOF8t/+OWLlpLv8OAEjEqhbO9wfeESdiMAAOk4hND7sk7t80i8EAJGIHKpzvDrkj5mIwAA6WiJXFAZfE+wpNsxisIgCJ2OSAS+KoQtMsBqsKQCI2O9iSeHaIplkMBsDp6+qFc7Ul8fwgpxxiMADC6iCF84F2xKEYDIDdXT0coHA+O8iOWJRisOoAJGKVCufzg+yIk+fFYADwpty3cB4dYkecZTsYPzsGA0AidrNlSdxzR8zFYBUAcFuhcK6wJJ7v1zSXq1ABABKx+d5L4miPplkMVh2ARGy255LY26tpFoNVByARy/dbEk8qNc37x2AASMTK4V5L4sVgg5u9YjAAOH1XvXA+22NHLMr9YzAAJGIVC+eXe+yI820x2GXYFwASsWn1JfFie9MsBqsOgNuKhXOv6o6Yi8EAqCER21w4n1TcEYelGAyAehKxecUl8aJK0/zuOSMiAKyqnHT0Ku2IfTEYAPUlYnmVJXH5/Kb54UsAgEMmYuWwwpK42NI0i8EAqCERGxfPXhJ7zz3lGP8rAMDBE7H+9iVxlx1xLgYD4Chun1c4L567I/azTcqvAQCOk4jdbFsSt++IuRgMgLoSsS0nHcvtO+JOD2HvXoR9AcCq3L1wXjxnRyzGcWIwACRi/S1L4pYdsS8GA+DITq93LpyXu++I02gxGAASsXK485J4v71pFoMBcASfH7cUztuWxA2nHJFiMAAkYpMdl8S77Z+nF4MBcCSX410K5/vddsR+7BgMAIlYPvjZTjtiLgYDoFZfy+0nHXc77IjDBGIwACRi82L7kni/uWkWgwFQixfXWwvn7TviJPvNbQCA+hOxfMuS+MuOOI0SgwHAl98TseGWJfH+z6ccbyPFYABIxMbFn5fE0W9Nc5QYDAC+jZ8onDcviWd/apofPoZ4AJCITf+0JJ4P1vrxYzAAJGIbTjpGf9gRp9lPyvchAgAkYhsK57ONO+IwhRgMAInYpsL5fNOOWJTZj1YhAQBIxPqblsT1jjhJMQYDQCI2fXpJXO+Is2RiMAC4fbJwPn9yR8wTjcEAkIiVxVNL4mjdNCcagwEgEZs8sST21k1zsjEYABKx2e9L4sm6aU43BgNAIpb/tiRe/No0P6YTgwHA9a+Fc++XHfEm5RgMAInYunB++dOOuG6a54nFYABw+vhT4Tz6eUeci8EASD8Rm/64JPZ+bJrLVwEAEnQ1zr67GfzbyQ87Yt6IGAwAiVhZrJfEi3XT/D9iMADS9arM/m3+/0ti73vTLAYDIH0fvydis/8uicvvTXNjYjAAJGL5f5bExfemuRExGAC8L/+vcO593xFvGhWDASARmxf/LInLQVE2KAYDgNU/hfPinx1x3rQYDACJ2HTQ6w36zYvBAJCI3SyXefapaTEYALwaXxTzBsZgAPCxPxODAQAAAAAAAAAAAAAAAAAAAAAAAAAAAAAAAAAAAAAAAAAAAAAAAAAAAAAAAAAAAAAAAAAAAAAAAAAAAAAAAAAAAAAAAAAAAAAAAAAAAAAAAAAAAAAAAAAAAAAAAAAAAAAAAAAAAAAAAAAAAAAAAAAAAAAAAAAAAAAAAAAAAAAAAAAAAAAAAAAAAAAAAAAAAAAAAAAAAAAAAAAAAAAAAAAAAAAAAAAAAAAAAAAAAAAAAAAAAAAAAAAAAAAAAAAAAAAAAAAAAP/L3p0gOKsqARSu7TGIQiG4/428d8e+c/8hGkU83wp6SPo0WBAAwOiM/ZXzP5vsL4IAANCj+edgLTEm/UaO0fu1h5oBAGDs5GPURjn6yRoBAOAKxvoSdY8a/RrkVAAA6rUkPUaN3srnAQAQXEl6tLxZAXAvAPn6EqdZTmTsy4Ls5V8n1wn+dVZ6gsCvDvjeuiX9sLStcharL/Oyl75OrmP1dV56Asuv7r8Bxi1VT1HLSsJIGEjYcUC/9Ey1zCSMhIGE4V7o15fkAwkjYSBhwB62VL3IspIwEgYSBrwp+KRXSt6M8p7PJAwk7ESALXq9EsZ4z0cSBhJ2GsAl7UO0JIyEgYQBLzO+aj+iJWEkDCQMeEn4Clj/ESNhJAwkDPgSinYoWhJGwkDCvgUYr52KgYSRsCuRMIBnYDsUQ8L6SVgUkDCgJ65q16onYSQMJAz4FzZr95IlYSQMJAz4m7DoLRRDwkgYSBjwZ1PVm6grCSNhIGHAlznrjcRAwkgYSBjwK6/3UlcSRsJAwoCvJdi9LIaEkTCQMMDrHSVLwkjYW0hYEWAUIetNeRJGwvDF8qsDh5lvJZrHJoyEgYQBpuidpZmEkTCQMLCJeFPukQkjYSBhgK16e9sDE0bCQMKASUewmKcljISBhAFFx5DNoxJGwkDCAJN1FI6EkTCQMHAhxy1FeVDCSBhIGDBXHYYlYSQMJAyMIt5SkeckjISBhAFOx1ENCSNhIGGgYLfk5Y4JI2EgYQAFS0LCSBgOShhAwVKM3vvV/sTIb4z9mfe+xFj1SCsJI2EgYaBgu+XFOxvkx4J1fsl6hCgkjISBhIGC7RE3Z6XVvPol6T7zUxJGwkDCgFWPVhdv5X1m9fH0O35JGAkjYQAnmrO3cgD7ZsaqIWEkDCQMFOwNiwtyGLOWpK0meUbCSBhIGGDqkf0yxxd2S9oiCQkjYSBhbcDd9GkK8uW6ilnZKfiX2QsTRsJAwoBFj1GsfNJaRnwbkjCQMGCHTY9QfZBPM1PSFwQSRsJAwl4GDoSlycgp1rh/oP56JAwkDL1gGDE5OU8o+wfqr0fCQMKA3UzSvaqXLx1EzMnlSBhI2D2AUQ5v5EsHEctyHyQMJAzYYdKdYpAvXUTMPiJhJAwkDJh1n7TKZULUf7HIDZAwkLDLgQdhm5Er2XTHgXoSBhJ2PfAgLFm5mq/6V15ug4SBhAE7rJ0twfbvJiZDwkgYSNgPgMt969pLh+uNBupJGEjY9cA2Yg7SC7Pc5v1HwkDCrge2EYv0ZKr3GKgnYSBh1wPbiE76EnKHYSVhIGHoD9uIde7ztv0aSBgJAwkDr+rvpFk6tFb1chskDCQM2CHpm7KRLs1FboOEgYQBO/jrCgYSBhIG7BDqdQUDCQMJA3ZYrisYSBhIGLCDvbBgIGEgYcAO8Z4F47cRnp4wkDDA3bRgJMySMJAwMFD/jmQE+5EwkDBgB3fBnRwgYSBhlwGLMCt7gITtBxIG+Atu9gUJG579ifN/Yn8yPyFh5utbd/Zn0htwQ32RHUDChjXbyZcY9RsxFu9sGDBh1vn/+NZzLH6yQboAnoRlAQkjYf/4+520QVy8DaMkbJ5K0h+LZbICXPwkrAZBOxI2KjuVrO+pi7d3T1iYlqoN8rYGAa5bhK3SAiRsXGbdou4V/XzbhM3bW/XO2yrANYuwTZqAhA3KblkPUst6w4SFKenb6uKM7AKsnGl+RfAvs2cmrPhDWBLWLri23bP2inWfsHXRvRYnwA6RE2EHv+f9+b+T3TwJaxSmrJ+QtnCXhJkpHRTuWd4EzGwjkjAS9sF+tYv2DgkzvuphopO3AIVtRBJGwloYF/XDkusqYe0Ba5e8kWaAYRuRhJGwBnOpeoLkukpYe8Da1faIAZ5rOUgYCXuVcVnPktZuE+aStiNi6GOivhp5IhJGwsJW9Uxx7jJhIerHVCcNgFWbTfJAJIyE2aKn20x/CfP6UdnKy4BFWyV5HhJGwmzUKyTbWcLmrJ9WXu02YLhZioSRsPaAnWgzPSXMa4NP7yYCk7aKsgMJI2EErFWeu0mYiXqO+FK3gcxAPQkjYe0BO1V1nSTMVj1LXWUncDMHizASRsLCotfbukjYpA14IoYTbCzCvkHCSJjZtAvFXJ+wcqMNVHAojEUYCSNhU9VOZHNxwkzWBtduJoJ9RBZhJIyE2az9yObChJ1QsPYzqMDGIoyEkbCGPcRBGtaesLnqJYo0A/uILMJIGAlbk3Ymm4sSdl3B2qfrwT4iF3OQMBJmFu1PNhclbK4jfNNgH9HJE5AwErZW7VG5JmGh3iTcYB+RK+pJGAkzRTu1XfFyzrnHxScQ2t8/4yNhJGxO2i13/st5lA1UcD9ikOGRMBLmtWN1HjNhNKwdFibq/4aEkTATn/HX3CoNw80xzPE3JIyEzVU7tz0nYQ0vH/B5zQxzkDASNmn/1uET1j6MCUbqeQ2RMBJW9AaqGTth7XdNgY8K49OaSRgJM1lvYes/Yd2tPsFIfZWhkTASNutN2NES1j6MCTj2EUkYCWvYR+xHHj9hjCWi7e3KMp6EkTBT9R7cuQnrcKQDSOwjkjAS9lde7yENmbCGdAOGf4BIGAn7u6T34J+ZsBrkV8DKPiIJI2ENb4uuVPPIhGmW94BTYdI/EkbC+vjB5xi9987+mfO+xKRHmZ6ZMPUCvPNWXeQBSBgJm3WHGotfrXxnXn2sul96aMJ0lp8BoxyNJ2GTPUQgYb/Y3kzK4l//Ec7Tsjtj7qEJy/ITwI7yvw8Js3IgEmba45K3NUirteyrWO43YTXGxX8pMaajL5oCpnO3LUgYCRvzrZG21cibXNQd5v4SlqJ3/74WDXba4nGTLEBhpJ6EkbCdg/VxCrKLLfq20lfCov9xy+20HHPAGcgcKSRhJGzPd7U4I/uFuGM10kvC8mabN1B3sAJomyAgYaMnrOGHn52Rg9ik73F9JCw3L0Vd5OMvsdPMozASRsLe/BCHtIUerrVaOkhYem8rNRTumcIujlNhJIyEvTVYv6xytDnpO8zVCStW2h0QMf6lhmeOlYSRsPbB+roF+QCz6BvcpQlL3sgeYWEZ9jZEnp+SMBLWOlifJtPTR5UtFyYsuQufArIMQ+KCRBJGwtreIMmdUM0m5yfs2B+F2ViGvQfc6ULCSFjTdxbtCc+nG63XJKweF5C1sgx7AyxnCUkYCfvO0h6w829n3C5JmDdynDmzDGsHxzQHCSNhLw/WJytnKNooX5CwJcihTGQZ1gyeaQ4SRsJefI8kJ+cwWRuFsxOW1g7KzR8lLNrECEjYSAlrGKyvk5wmVG2znpywzfSw+uSsKiJrdhJGwr7n2h/8nD6WuJ2asGT72EHl0jtwJRkJI2E/klWX0PeBzXxmworpZVuoKd8gYV5Awp6XMJutnC1om/MSVtcTngK2qILHss8eSCRhJIxJK6tNcujms7KZq4dl9oeEdZkwmKotppP+CBTTz0uJVxQ8z01JGAkb4c25ndMM19v33fCHCSRMQMJOShiMtohn/O7q3NUkC084sHBDIgnrNGEo2qCe8buLfR2K47QPIlvOJIyEDfGJ6maYhInXVrPgmTLnL0gYCRvi7WnHSZgkjoaBY2EkjITd3KQN3EAJs+wk4hMJWwUkjIT1ebzZD5Qwicwk4hUzx8JIGAkbYyexjJQwy0wiXmF5ZkrC+k0YNn1dHClhEo//wDSQMAEJOzFhWPV1eaiEWW1kBDwuPjth9hqGhJGwAU83D5UwidyT+GPw10796DUsCSNhN5Efm7BV2xQBCTvp9UvCSNjxuKBjHiphkh4zVg8SRsJIGFv9dqyEecbqcfB+80LCSNipCYN9bsICD8NwcMI8CSNh3SaMw83rWAmThYdhIGEkjITdmr7OD5Ywx8MwkDASRsJuLT83YYaHYT+CTMJIWM8JQ3xuwmThClcc2hBLwkgYCSNhne4keukJSBgJI2HwD05Y0CZR+gASRsJIGEiYZO5wBQkjYSTsGQmLwyVsu+c8B0gYCSNhIGH2nvMcIGEkjISBhMlN5zlAwkgYCQMJy9pikU6AhJEwEgYStvHJzThwaPXEgpIwEgYStjKS+B1YEnbnhP2fvXtBYxRVAihc2wPxgQXi/ldy53W/9Dw7KMGKnrOBme5O8guWCGE3D8ImrWoWshGEQRiEEYRJ0Zq8GIkgDMIgjCAsMpJIEAZhEPadQdiuNe1CRoIwCIMwgrCRUxIJwiAMwr4zCPNM1VM7wiYIgzAIgzC7r70UelYTjzbbJQzCCMLkSwkjTueAMAgjCItM1ROEQRiEdQzCIIwgDMIgjCAsaE2DdIggDMIg7MFN/rfCnxr8L83y1yCMZ5sJwiAMwi5XK4QQYyz6s0qMSwjD75xBWIYwgjAIg7Cr6BrDEoseKy4hbw8nzHM8R7MgbIAwCIOw95pzWJI2D8L4aJGd93pDGITdsHnYo7YJwgTC/iNaIQzCIKxhPsSifYIwCKMIYRAGYe340iuDMF2FIKz+XimEQZg8nDA3LEU/EIQlrUkIwqo+vxAGYRA2jUk/FIRFCCMIgzAI+1TuKr8gDMJohzAIg7AT5UWvCsIgjILWVCAMwiDs1RSKGgrCIAzC+n4+fMMgDML65jf9fBC2Qxj9e6NWJYaDMAjrmY+qEHbtZTaEka/fgYMwCIOwnNReEKbqxX4EYRAGYazAIAzCaNaqxscTBmEQNkVVCIMw4pxfCIOwr8vtaiUIgzDSqrZnEwZhEJaLmgnCIIzW25wDvUIYhH06t6ihIAzCKN7mHOj4TMIgjCUYhL2ahSDsP7rHn2SAsPogzG1qKwjjuTAKWtV8C8IChFUHYXPS7yYMwgjCvNgIwiCMTUQIgzDK5qfqIQzCDDSqvSAMwshbn6qHMAgz0KYQBmFkMKffOVUPYRDGIAeEQRhpXRAGYY8jzCW9LAhbIKxhTNVP0i0IgzAEg7DYkDCCsCwWgzAIQzCFMF3laVEwPJIIYRDGJAeEVRTladGgVS1iIwiDMASDMAgjr195SiKEQRjPg0EYhJFTm/McEAZhBsravBLjEn7J/7Uh/FKMcYWw9z9YEEbF5DwHhEGYgaaizVrjHrJ38k6T92PYajGDMN2FGEm0+RmBMAjrX9ImpX30cqg5bxBWUZDHRbvF8zkgDMIMtOv5YvByJv9wwhyEUdv71RAGYQ8hzOvJ1t3LuSDMQxi1/Z56CIOwRxDm1pN+zdIgCKvJy/Mi7f9wM4RB2L23Ecs2S4sgLEMYtb1lHSEMwp5A2KyHW0cnbYKwAGHU+PgBB2EQ9gDC4mHABmkYhNUkxDxH/yfDIAzC7DXoscogAmF237VCzHPsYrIFwiCsYaseKjiBMA6q7xrpLY5JDBAGYVcvwtIsbYOwlfOlqPURBLP0D8IgzP4iLIhAGEckkvXh4VH6B2EQZn0RVry0DsImnmym5l/XJP2DMAgzvghLk0AYh3NcEE1a2XRrwiAMwvIBwZxA2NXX11keGa39dxIhDMIMF48KBmE82dw/2vrvJEIYhNltsiIYhC1akxN6ZEPXnUQIgzDj7VYEg7CkNQlxM8zYTiKEQZj9nfUyC4QxU0/f85Vdv5uwDcIgrOUBv1kgzMI/xSLEk2HvNX81YRHCIKzh12GXDwVhmZl6+sgM8SZdgjAIs78psToIszGQOAg9NKeVFXdTwiAMwmYz7zGHsMhMPX3mOZjhpoRBGIQFtXIDBsKK1iTEO8NMDXRAGITZv56bIMzIrPQqxFh9h19LCIMw05m5LQxhmZl6+tSxpvGWhEEYhHkzizAI27WmIMRYfYevLoRBmOWCmUs5CIsc8ktvNmu3uXoIgzDLRTNzTRCmVU1C7CRa+8BAGIRZHoIrAmFm9nSFntxubRkGYRBmf7Jpg7Av3dMldhJ1uh1hEAZh3sztFwhLTHPQ+602l2EQBmGGr/wdhNk4NIhpDgrWl2EQBmEd2qzsXUFYZpqDKpr0u5dhHsIgrPdAYoAwK1cTnM1BSavzNyMMwiCsWNm7grDCy8KopkGrizcjDMIgzMreFYR5rWoUeniuaHWDWAnCIKz/ZK5AmJnnfGahp7epGnxvGIRBmNVL/whhZmaki9Djm7W+/U6EQRiEZSOEQZjXqhYhSmpmogPCIMz+syUBwsxsCg1CNGh9CcIgDMKaB2Gl/VNhxEBH/68xhAUzQ1kQBmFWr6dXIRLZ9UAzhFkhLEDY2RYbu+gQFutvyhNNeqDV3YUwCIOwaIIwCJv0wAGJRJseaBMLQVh/GyAMwoz8EsmvEc16pAHCbBCWbkEYhEGYK4zU06GiHqjM8rEgbDB1LQphENahcOwqmsjrkZKTTwVh3vRkMYRBmIG3FzqhE7EM0wXCTBCWpWMQliHsMw0dfn+IZViXmVYIm60+pAdhAcI+09p5H5FYhunwRYSt9gkzigOEQViHRu29j0gswzR/0f/3bQkr0jEIWyDMxClBi7wiiqqWxhIhLBk9KgXCIoR9onBmC4jIqynDICwafXUthCmEWTgjqAjRj22mDIOwTd8vQVjPD/8EYe1bzh0PRDSpJcMgLPT7UYWwcPEOFoTlsweNEwVLhkHYoEZ3EiFsg7DWufXsKwuJXPlCw9xtCfNWv88QtkJY6/bzz/MQDXq0kuWqbkuY67erAmH50j0sCMtaW3FCVDGX1fuaCMKkdNvbgjCvVe0QdvUG0C5E9YcadfxIQVjsNiUHYbO1992PjyIs6qsTn3eioMdbnLQMwnatKUDYmYwdSjPokwjbG71wl8iterw0S8MgbOh3WQphRauK3QR7AGGD1uflnyLyeqIySLsgbO53XQph0dJP6KBPImwuWl0Uoqo1ff/NRAiTfr+qELYZ+g3d9UmEzcXKIozYSlRdvbQKwqJWlSDsDmfMuk2fRJgryiKMWub1XLuTNkFY6DYUCmHZynNJLumTCHNJWYRR24KqiYUYhOVu32wIm1RNvK3KF30SYS4pizBqXdKTLROESYOcVlYmCDtaPR1j/8fB7kbYvCqLMGreVPRkJTgIu+JiIjkIO1g08Evqoj6KsLkoizD6QIOebh0g7HxBexkGYeH6061z0UcRNhQ91Cz/HdGmFhCDsFl7GQZhWS82zC2qjyJs12NtQvSzkhpADMKk9DIMwpxea9hYtDNh7tJ/uinpq8ajoERT0Rato4Ow3svhNEPYkdKVb2jwSbU3YXLlP10uerBRiH7erG0q2ySfzMdbE5a7vbwNwnY91ObkdFNUfRRhbtGjJXknokFbFQcnn8kNSfXWhEnp9Xg5hPmrnoOcNtVnETYWPZyXtyLatFlly9I+vxXVuxO29fpZhTApqhcsxPym+izC/NrjtYREi6pdxfy+qur9CfPWHy/X9yvRQHvF5UKH5yCHqPoFhKX2W//HWp28GZFL2rSyDJO0aBqWoqqPIExWPdo29SfMfrHtjccXYpNUN+9F1RBhHQazctRTeaH+YdirdTvJ2Dxsq766P2GjHm/z8n4QJudAWbLUNI1JVc0T9ur8PoobVz3XLkTtR+srK0vwRxzzwx711UMIc3qmNE7ybhC2nd8td/JWeV9V1QBhHe8G5EVfsY1IXZqLfqgS9+BneSvvwx5XffUkwmTTc6VxlreCMK/ni8E7+a+mvEc9V3/CXi2HPk5u2IqebxayEYa9JIt7CNl7P8kPTf6XhhBCjEnbNX0jYbOebt1GLz8NwmTVJq0xjN7/86VY0Vb1J+zFdK7AxOU9aZNGIWthWNf8NxImUZuUljD887rX+xxCTBoeT9iobYuv9JVZwuo/T5P8Z7MPy6qtWoS+LwyDMK9tiz+mPwRhrqiJ7BP2KsYYfin7HwshLLEeL26E3S8MgzCJ2icIkw3CrFZmoW8MwyDMa58gTCa1VIGwV1mIOr4dHMKML8MgzP4yLEMYoxzUIpf0wiBs0g5BmLVlWJQEYbzmklrkol4XhMneiTAIk13N5GWHMIYRqU2bXheEuVU7BGGmhhI3kQxhjd5ETjTqZUGYZO0QhFn6oJdJxEEYgtH1bwqHsPMtnQiDMEmG5hcShCEYtWpOelUQ5konwiDMG/r/3CEMwahZbtGLgjDxnQiDMNmNbCP+UoYwBLtD3BCDMAnaPgiz+gzJIL93C8IQjHjKGcIk9iEMwmTWq9vlj+LDCYsIRm1zm/YPwjpM1kPYq9HM/2SwTxhPNBOTiRBm4LBKCHu1Wdk8848mLAjRbaY6IExmbRGEGb8dViZ59WDCyiB0o1iIQZgMfQiDMHHFyFtF4mMJW2ch23FHDML6GwZh7zUXE4JJeCphixOiz+WTdgjCOhgGYRWG9RZM/EMJG4Xos41FOwRhHQyDMDOGpUn+0iMJS7OQ/dhNhLD+c4kQZsGwigd54wMJ250QdWiK+kWlwVknrMPj5RBm2LBN/l54HGGrF6JO+ajfUdlmEelImNUXkEJYRVPSng3yD/mnERac/CkiEIuDE7kNYSKhC2EQJi5eP0T+LMLiJEQg9mNrmETkVoSJL3o8CKtov/z+T3wQYWsWIhA7voHYn7D+R6RAWFW5XPzbHR5DWAlyTUTTZtOvLCK3JEwkrz0IgzBx8doRPP8xwqawmgLMyWURuXG179edCBO3a30QZvARyDif+iuOcry8ABiRta+D6rrPImKfsP4PNUCYtZOt1+Hki+KinMkNSS9vBTAy0WRiKbaMk7yyT1j/u5AQZuZAtRJOz5/G81/baxVLgxBZad7Xa5dfWV7ZJ6w/YhB2rGG9avvMf4ywV25Yrh24IkKxdRsmEXkWYSLzpg2CsP6IrUOTv+Mobcr7av/IHOoUiiUDfD2DMBEXVq0PwqobkrZryfJmsQ9hvzQNW0fG0jgJkdWmcSnapbjnqQ/M8e0G6ZvfyjWExS9rP/v3fMHz9qEPYS/GEn79GpEPUT9a2kYvv0X5rGJBqMsEX9m82M75sBT9WGUbnBB9R35cVm1fiTt6/TW/Jwj7fNOYOgwcmXAsaevKMs5C9F1NOcS1HV5b8JPQP+byHiHs47lhW5/x8z3nsERtU9yHSYi+NOfH/RRka9xC9kI/zY/Vjq0xeKHP3TRav3r14XwOe0x6tLSEPAvRDZr9GJYaymJcQsh+ktq4ZAhLLPqTEhcGZ/JDiOtPtw1G7+QeeT+EsMV3v8ApbmHku3vTsMwPIYQ9/kN7+KXsvZfzQZn34Ze2+ENbCGHk77dVk89//AXr/4u/tIfR+zt/g39pDH+0vT5ZvzR47//XXh3IAAAAAAzytz7Ht5Lo3TYAAAAAAAAAAAAAAAAAAAAAAAAAAAAAAAAAAAAAAAAAAAAAAAAAAAAAAAAAAAAAAAAAAAAAAAAAAAAAAAAAAAAAAAAAAAAAAAAAAAAAAAAAAAAAAAAAAAAAAAAAAAAAAAAAAAAAAAAAAAAAAAAAAAAAAAAAAAAAAAAAAAAAAAAAAAAAAAAAAAAAAAAAAAAAAAAAAAAAAAAAAAAAAAAAAAAAAAAAAAAAAAAAAAAAAAAAAAAAAAAAAAAAAAAAAAAAAAAAAAAAAAAAAAAAAAAAAAAAAAAAAAAAAAAAAAAAAAAAAAAAAAAAAAAAAAAAAAAAAAAAAAAAAAAAAAAAAAAAAAAAAAAAAAAAAAAAAAAAAAAAAAAAAAAAAAAAAAAAAAAAAAAAAAAAAAAAAAAAAAAAAAAAAAAAAAAAAAAAAAAAAAAAAAAAAAAAAAAAAAAAAAAAAAAAAAAAAAAAAAAAAAAAAAAAAAAAAAAAAAAAAAAAAAAAAAAAAAAAAAAAAAAAAAAAAAAAAAAAAAAAAAAAAAAAAAAAAAAAAAAAABAVeN6Wox8WMAAAAABJRU5ErkJggg==;imageBackground=#E6E6E6;" vertex="1" parent="1">
                    <mxGeometry x="30" y="170" width="97.09" height="88" as="geometry"/>
                </mxCell>
                <mxCell id="73" value="" style="sketch=0;pointerEvents=1;shadow=0;dashed=0;html=1;strokeColor=none;fillColor=#DF8C42;labelPosition=center;verticalLabelPosition=bottom;verticalAlign=top;align=center;outlineConnect=0;shape=mxgraph.veeam2.microsoft_teams;" vertex="1" parent="1">
                    <mxGeometry x="38.55" y="530" width="80" height="70" as="geometry"/>
                </mxCell>
            </root>
        </mxGraphModel>
    </diagram>
</mxfile>